HIERARCHY
ROOT Hips
{
	OFFSET 0.00 0.00 0.00
	CHANNELS 6 Xposition Yposition Zposition Xrotation Yrotation Zrotation
	JOINT LeftUpLeg
	{
		OFFSET 3.44811 0.00000 0.00000
		CHANNELS 3 Xrotation Yrotation Zrotation
		JOINT LeftLeg
		{
			OFFSET 0.00000 -16.89127 0.00000
			CHANNELS 3 Xrotation Yrotation Zrotation
			JOINT LeftFoot
			{
				OFFSET 0.00000 -16.21733 0.00000
				CHANNELS 3 Xrotation Yrotation Zrotation
				JOINT LeftToeBase
				{
					OFFSET 0.00000 -1.79183 6.68720
					CHANNELS 3 Xrotation Yrotation Zrotation
					End Site
					{
						OFFSET 0.00000 0.00000 2.95275
					}
				}
			}
		}
	}
	JOINT RightUpLeg
	{
		OFFSET -3.44811 0.00000 0.00000
		CHANNELS 3 Xrotation Yrotation Zrotation
		JOINT RightLeg
		{
			OFFSET 0.00000 -16.89127 0.00000
			CHANNELS 3 Xrotation Yrotation Zrotation
			JOINT RightFoot
			{
				OFFSET 0.00000 -16.21733 0.00000
				CHANNELS 3 Xrotation Yrotation Zrotation
				JOINT RightToeBase
				{
					OFFSET 0.00000 -1.79183 6.68720
					CHANNELS 3 Xrotation Yrotation Zrotation
					End Site
					{
						OFFSET 0.00000 0.00000 2.95275
					}
				}
			}
		}
	}
	JOINT Spine
	{
		OFFSET 0.00000 0.03937 0.00000
		CHANNELS 3 Xrotation Yrotation Zrotation
		JOINT Spine1
		{
			OFFSET 0.00000 10.84478 0.00000
			CHANNELS 3 Xrotation Yrotation Zrotation
			JOINT Neck
			{
				OFFSET 0.00000 8.84498 0.00000
				CHANNELS 3 Xrotation Yrotation Zrotation
				JOINT Head
				{
					OFFSET 0.00000 5.71605 0.00000
					CHANNELS 3 Xrotation Yrotation Zrotation
					End Site
					{
						OFFSET 0.00000 4.52755 0.00000
					}
				}
			}
			JOINT LeftShoulder
			{
				OFFSET 0.00000 8.84498 0.00000
				CHANNELS 3 Xrotation Yrotation Zrotation
				JOINT LeftArm
				{
					OFFSET 6.73125 -0.00002 0.00000
					CHANNELS 3 Xrotation Yrotation Zrotation
					JOINT LeftForeArm
					{
						OFFSET 11.19281 -0.00004 0.00000
						CHANNELS 3 Xrotation Yrotation Zrotation
						JOINT LeftHand
						{
							OFFSET 9.77593 -0.00004 0.00000
							CHANNELS 3 Xrotation Yrotation Zrotation
							JOINT LeftHandThumb
							{
								OFFSET 0.00000 0.00000 0.00000
								CHANNELS 3 Xrotation Yrotation Zrotation
								End Site
								{
									OFFSET 0.00000 0.00000 3.93700
								}
							}
							JOINT L_Wrist_End
							{
								OFFSET 3.93700 -0.00001 0.00000
								CHANNELS 3 Xrotation Yrotation Zrotation
							}
						}
					}
				}
			}
			JOINT RightShoulder
			{
				OFFSET 0.00000 8.84498 0.00000
				CHANNELS 3 Xrotation Yrotation Zrotation
				JOINT RightArm
				{
					OFFSET -6.73125 -0.00002 0.00000
					CHANNELS 3 Xrotation Yrotation Zrotation
					JOINT RightForeArm
					{
						OFFSET -11.19281 -0.00004 0.00000
						CHANNELS 3 Xrotation Yrotation Zrotation
						JOINT RightHand
						{
							OFFSET -9.77593 -0.00004 0.00000
							CHANNELS 3 Xrotation Yrotation Zrotation
							JOINT RightHandThumb
							{
								OFFSET 0.00000 0.00000 0.00000
								CHANNELS 3 Xrotation Yrotation Zrotation
								End Site
								{
									OFFSET 0.00000 0.00000 3.93700
								}
							}
							JOINT R_Wrist_End
							{
								OFFSET -5.39369 -0.00002 0.00000
								CHANNELS 3 Xrotation Yrotation Zrotation
							}
						}
					}
				}
			}
		}
	}
}
MOTION
Frames: 14
Frame Time: 0.033332
 -80.6305 29.7429 59.8749 154.0587 50.8301 -159.1764 -2.1283 7.1373 2.1147 43.4345 -0.0000 0.0000 -39.3534 -1.8797 7.6962 -23.0344 0.0000 -0.0000 -60.9314 -1.6912 3.4026 76.3970 -0.0000 0.0000 -33.4343 0.0297 -11.9536 -14.9543 -0.0000 -0.0000 -1.6727 2.4978 -1.9727 13.5637 -5.1640 3.6494 16.5022 27.2046 1.9936 -10.6910 -11.8418 -2.9596 4.4042 6.0177 0.0795 -24.0705 -30.5671 -62.5141 -0.0005 -68.1089 -0.0004 -15.4112 16.2404 27.8412 -0.0000 -0.0000 0.0000 -0.0000 -0.0000 0.0000 9.5799 -3.6154 -0.4708 26.7326 19.5258 70.8555 -0.0001 26.2779 0.0000 -3.9193 -6.1109 -0.2637 -0.0000 0.0000 -0.0000 -0.0000 0.0000 -0.0000
 -78.7298 30.4764 58.7041 153.1424 49.9795 -158.7854 4.3320 7.3379 2.8947 32.9223 -0.0000 0.0000 -29.1813 -4.1048 5.4827 -27.8524 0.0000 -0.0000 -60.8222 -2.4968 1.4372 72.9422 -0.0000 0.0000 -33.1138 0.7027 -11.7495 -15.4451 -0.0000 -0.0000 -1.9379 1.8320 -1.1797 12.5134 -5.7990 4.0548 16.6615 27.0768 2.1231 -9.6447 -11.7059 -3.6592 4.4094 6.3361 0.8869 -22.4107 -30.1123 -63.0948 -0.0006 -71.0250 -0.0004 -16.0084 12.7548 28.2299 -0.0000 0.0000 -0.0000 -0.0000 0.0000 -0.0000 10.8065 -4.7157 -1.5650 29.4094 17.4459 71.7506 -0.0001 25.0724 0.0000 -4.7472 -7.5823 0.6849 -0.0000 0.0000 -0.0000 -0.0000 0.0000 -0.0000
 -76.6500 31.2822 57.4951 151.4883 49.1135 -158.0324 8.4695 6.3779 4.0126 25.6539 -0.0000 0.0000 -14.0116 -6.5097 8.2447 -32.9474 0.0000 -0.0000 -59.9329 -4.3822 -0.3465 67.6225 -0.0000 0.0000 -32.5715 1.4071 -10.7391 -15.4717 0.0000 -0.0000 -2.4263 1.2031 -0.3000 11.3437 -6.4058 4.6275 17.0551 27.3372 1.9699 -9.1793 -11.8134 -4.2034 4.3071 6.9764 1.9429 -19.2160 -30.4321 -64.1782 -0.0006 -72.0489 -0.0005 -16.9795 9.5008 29.4714 -0.0000 0.0000 -0.0000 -0.0000 0.0000 -0.0000 11.3837 -4.8970 -2.7611 31.4342 16.3311 72.9029 -0.0001 24.7124 0.0000 -5.5263 -8.7180 1.4985 -0.0000 0.0000 -0.0000 -0.0000 0.0000 -0.0000
 -74.6004 31.9368 56.3213 148.5502 48.2917 -156.0399 9.1983 3.4792 4.7627 23.8747 -0.0000 0.0000 0.3564 -5.9740 7.2717 -27.9201 -0.0000 0.0000 -59.2891 -6.6982 -1.8216 62.0676 -0.0000 0.0000 -31.5508 1.9676 -9.9075 -16.2627 0.0000 -0.0000 -3.0705 1.0242 0.3558 10.0469 -6.5631 5.2954 16.4621 27.6606 1.7787 -8.3621 -12.3840 -4.2674 3.9524 7.0447 3.1674 -15.2102 -30.7781 -65.6059 -0.0006 -71.4525 -0.0005 -15.1792 9.6424 30.2735 -0.0000 0.0000 -0.0000 -0.0000 0.0000 -0.0000 11.3849 -4.9730 -3.6537 31.5484 15.3015 74.1548 -0.0001 24.4791 0.0000 -5.8349 -8.4193 3.6572 -0.0000 0.0000 -0.0000 -0.0000 0.0000 -0.0000
 -72.5400 32.2454 55.0637 147.2980 49.1311 -154.6953 9.1507 0.2574 4.1870 27.7537 -0.0000 0.0000 7.7637 -3.4159 4.3654 -10.6279 -0.0000 -0.0000 -56.2462 -7.8088 -2.3189 58.2221 0.0000 0.0000 -31.3695 1.8935 -10.3234 -16.9148 -0.0000 -0.0000 -2.5271 1.2503 0.6726 10.0367 -6.2756 5.7905 16.0707 27.9605 1.5241 -9.2722 -12.3663 -5.2739 4.0849 7.3232 2.9976 -11.0417 -31.1402 -66.0757 -0.0006 -69.4931 -0.0004 -15.3352 8.5984 29.8292 -0.0000 0.0000 -0.0000 -0.0000 0.0000 -0.0000 10.4790 -4.3906 -3.3931 30.6315 15.5624 73.9715 -0.0001 25.1158 0.0000 -6.5570 -7.7125 4.0177 -0.0000 0.0000 -0.0000 -0.0000 0.0000 -0.0000
 -70.5158 32.1548 53.8446 145.5950 50.1296 -153.0844 5.4109 -1.5976 3.1863 38.7524 0.0000 0.0000 3.3648 -1.2518 8.8471 -10.5248 0.0000 -0.0000 -52.2174 -7.7445 -1.9712 56.4907 -0.0000 0.0000 -30.3589 1.5706 -8.1309 -16.3556 0.0000 0.0000 -1.9154 1.4207 0.7463 9.9362 -6.0082 6.6394 14.7921 28.4546 1.4907 -8.6890 -12.3102 -6.1475 4.9354 7.9411 2.3338 -7.3343 -31.2751 -67.5391 -0.0005 -65.0159 -0.0003 -16.8248 7.0913 31.0502 -0.0000 0.0000 -0.0000 -0.0000 0.0000 -0.0000 9.4357 -3.4926 -2.6139 27.8582 16.3285 72.8177 -0.0001 26.2400 0.0000 -7.2095 -6.5996 3.3512 -0.0000 0.0000 -0.0000 -0.0000 0.0000 -0.0000
 -68.4591 31.7693 52.7495 143.2277 51.2348 -152.5371 -1.2757 -1.3425 4.2259 52.9331 -0.0000 0.0000 -3.8049 0.7234 11.0388 -10.9701 -0.0000 0.0000 -48.8599 -8.8519 -0.1134 58.1107 -0.0000 0.0000 -34.6220 2.7581 -6.6334 -19.3852 0.0000 -0.0000 -1.5129 1.8593 1.5566 9.8692 -5.3284 8.4253 13.6508 29.6779 1.5082 -8.4068 -12.9669 -7.5517 5.8293 8.7861 1.0161 -3.7689 -32.0318 -69.6403 -0.0003 -57.5721 -0.0002 -19.0280 7.7316 31.1598 -0.0000 0.0000 -0.0000 -0.0000 0.0000 -0.0000 8.4095 -2.2984 -1.4660 23.1043 17.7325 71.0568 -0.0001 27.1061 0.0000 -8.9552 -5.2954 2.5381 -0.0000 0.0000 -0.0000 -0.0000 0.0000 -0.0000
 -66.4768 31.2551 51.6173 139.0985 54.3353 -150.2194 -9.7328 -0.0872 4.6001 67.3468 -0.0000 0.0000 -11.5134 3.6645 13.6247 -10.7400 -0.0000 -0.0000 -46.1808 -8.4035 2.7786 60.3239 -0.0000 0.0000 -37.0787 4.1060 -7.1559 -17.8004 0.0000 0.0000 -1.2236 3.4612 2.3115 10.3944 -3.5637 9.6728 13.8776 31.1153 1.2649 -10.6060 -13.4051 -10.1431 6.4718 9.2793 -1.0694 0.9070 -33.2735 -70.9204 -0.0002 -48.6788 -0.0001 -21.2065 9.8077 29.7143 -0.0000 0.0000 -0.0000 -0.0000 0.0000 -0.0000 7.3555 -0.5744 0.8930 16.5145 18.8942 67.8377 -0.0001 28.1262 0.0000 -9.8330 -3.4031 1.4292 -0.0000 0.0000 -0.0000 -0.0000 0.0000 -0.0000
 -64.4146 30.6890 50.4191 135.8821 57.8263 -147.8435 -19.5965 0.5342 4.7131 81.2190 -0.0000 0.0000 -18.0137 3.3102 18.2858 -9.6703 0.0000 0.0000 -41.7297 -6.0375 5.3922 61.5090 -0.0000 0.0000 -41.3210 4.8351 -7.2538 -18.0878 -0.0000 -0.0000 -0.5711 4.8011 2.5344 11.4548 -2.1889 10.1900 13.9117 32.3117 0.8527 -11.7275 -13.2533 -12.1865 7.4087 10.2009 -2.3795 7.3279 -36.6604 -71.6318 -0.0002 -40.5602 -0.0001 -24.0744 13.3049 27.0470 -0.0000 0.0000 -0.0000 -0.0000 0.0000 -0.0000 6.0217 1.5774 2.8495 8.0200 22.0242 64.8943 -0.0001 28.0500 0.0000 -11.7600 -2.8543 -0.5870 -0.0000 0.0000 -0.0000 -0.0000 0.0000 -0.0000
 -62.2429 30.2308 49.1889 133.2781 60.6189 -145.2946 -31.3325 0.7147 5.1576 92.3220 -0.0000 0.0000 -22.3786 2.9305 19.4573 -8.5320 -0.0000 0.0000 -36.4459 -3.4073 6.6642 61.4386 -0.0000 0.0000 -44.8408 5.2846 -7.4345 -18.5630 0.0000 -0.0000 -0.2241 5.9197 2.0830 12.3144 -1.1085 10.1240 14.6566 33.0199 0.6523 -12.5404 -12.6471 -13.6762 7.8153 11.3293 -1.6796 17.4576 -44.1317 -70.8518 -0.0002 -36.1625 -0.0001 -23.6346 16.6371 21.0033 -0.0000 0.0000 -0.0000 -0.0000 0.0000 -0.0000 4.8498 3.3272 2.0484 -2.8785 26.0700 66.1456 -0.0001 28.7289 0.0000 -9.3950 -1.9914 -5.7846 -0.0000 0.0000 -0.0000 -0.0000 0.0000 -0.0000
 -59.8336 29.9848 47.7375 131.7535 62.9085 -142.0660 -42.7491 1.9598 5.1237 97.1018 -0.0000 0.0000 -26.4889 4.0599 19.9462 -8.6739 0.0000 0.0000 -29.3154 -0.6043 5.2654 58.8845 -0.0000 0.0000 -47.5648 5.7421 -6.6684 -19.3383 0.0000 -0.0000 -0.6521 7.5100 1.3175 14.0565 -0.2379 7.6577 13.6956 32.9684 1.3869 -11.4123 -12.8535 -13.1112 8.3566 13.2505 0.2868 30.9801 -49.5587 -66.0285 -0.0002 -40.2632 -0.0001 -17.5738 18.4170 16.7623 -0.0000 0.0000 -0.0000 -0.0000 0.0000 -0.0000 3.2542 4.3718 0.7111 -12.5533 25.5924 69.1616 -0.0002 37.0772 0.0001 -8.0875 -0.8775 -8.4685 -0.0000 0.0000 -0.0000 -0.0000 0.0000 -0.0000
 -57.1023 30.0634 46.2375 131.3069 63.9270 -140.0846 -53.6305 2.9095 6.1611 95.7998 -0.0000 0.0000 -28.4057 5.0264 21.0926 -8.4801 0.0000 0.0000 -19.9517 2.6174 3.8308 51.6046 -0.0000 0.0000 -47.5368 4.6076 -7.0614 -20.8197 0.0000 -0.0000 -0.6140 9.1678 0.1280 13.3808 0.7371 5.6197 14.4557 33.3020 1.0799 -10.8975 -15.3401 -11.1272 9.6747 15.4320 2.0588 44.6240 -48.2047 -60.1949 -0.0002 -48.8157 -0.0001 -17.3364 18.3309 16.7795 -0.0000 0.0000 -0.0000 -0.0000 0.0000 -0.0000 2.8138 4.2556 -1.1269 -18.3981 24.3249 70.6211 -0.0003 50.1436 0.0001 -10.0268 0.7431 -10.2033 -0.0000 0.0000 -0.0000 -0.0000 0.0000 -0.0000
 -54.0711 30.4832 44.4556 134.1861 62.6419 -140.3018 -62.1266 4.1091 4.8300 88.5283 -0.0000 0.0000 -27.7050 4.5784 19.8446 -9.2208 -0.0000 0.0000 -7.3564 4.4938 0.4018 37.9284 -0.0000 0.0000 -43.2701 2.7499 -7.1375 -23.1682 0.0000 -0.0000 -0.6925 10.1346 -1.6274 12.2005 1.0896 3.4577 15.1642 33.1122 1.2033 -10.2126 -18.5627 -9.2727 10.4072 16.6184 4.7994 52.6122 -43.8123 -58.1770 -0.0003 -54.9196 -0.0002 -20.4167 18.3932 16.5143 -0.0000 0.0000 -0.0000 -0.0000 0.0000 -0.0000 2.6042 3.5641 -2.6456 -20.8914 22.1449 69.7193 -0.0004 63.6545 0.0003 -9.4999 0.6720 -11.8660 -0.0000 0.0000 -0.0000 -0.0000 0.0000 -0.0000
 -50.8849 31.1307 42.4888 135.9294 59.7969 -139.3148 -68.6115 6.9252 2.8642 76.9978 -0.0000 0.0000 -26.1948 2.2773 18.1299 -10.0785 -0.0000 0.0000 4.7137 3.7023 -3.7657 22.5634 -0.0000 0.0000 -30.0021 2.0045 -7.1737 -32.0276 0.0000 0.0000 -1.2173 10.9378 -3.6184 10.1882 1.4864 1.2190 15.8475 32.0792 1.4593 -9.3968 -21.5884 -7.2869 11.1283 16.5326 7.9120 56.3825 -40.5360 -57.7730 -0.0003 -57.9370 -0.0002 -22.7858 18.8453 17.9541 -0.0000 0.0000 -0.0000 -0.0000 0.0000 -0.0000 2.0378 2.6890 -4.4186 -20.9725 18.3601 68.5568 -0.0008 74.5935 0.0006 -9.5401 0.7661 -12.3121 -0.0000 0.0000 -0.0000 -0.0000 0.0000 -0.0000
